<svg xmlns="http://www.w3.org/2000/svg" xmlns:xlink="http://www.w3.org/1999/xlink" xmlns:lucid="lucid" width="1228" height="968"><g transform="translate(-260 0)" lucid:page-tab-id="0_0"><path d="M0 0h2320.5v1360H0z" fill="#fff"/><path d="M740 365.94h280v33H740z" fill="#fff"/><path d="M740 397.94h280v33H740z" fill="#e6e6e6"/><path d="M740 429.94h280v33H740z" fill="#fff"/><path d="M740 461.94h280v33H740z" fill="#e6e6e6"/><path d="M740 493.94h280v32H740z" fill="#fff"/><path d="M740 325.94h280v40H740z" fill="#ccc"/><path d="M740 330.94c0-2.76 2.24-5 5-5h270c2.76 0 5 2.24 5 5v190c0 2.76-2.24 5-5 5H745c-2.76 0-5-2.24-5-5zM740 365.94h280M1012 365.94v160" stroke="#333" fill="none"/><use xlink:href="#a" transform="matrix(1,0,0,1,750,325.9375) translate(0 23.6)"/><use xlink:href="#b" transform="matrix(1,0,0,1,745,368.4375) translate(0 17.1)"/><use xlink:href="#c" transform="matrix(1,0,0,1,745,368.4375) translate(68.9 17.1)"/><use xlink:href="#d" transform="matrix(1,0,0,1,745,400.4375) translate(0 17.1)"/><use xlink:href="#e" transform="matrix(1,0,0,1,745,432.4375) translate(0 17.1)"/><use xlink:href="#f" transform="matrix(1,0,0,1,745,464.4375) translate(0 17.1)"/><use xlink:href="#g" transform="matrix(1,0,0,1,745,496.4375) translate(0 17.1)"/><path d="M300 365.94h280v33H300z" fill="#fff"/><path d="M300 397.94h280v33H300z" fill="#e6e6e6"/><path d="M300 429.94h280v33H300z" fill="#fff"/><path d="M300 461.94h280v33H300z" fill="#e6e6e6"/><path d="M300 493.94h280v33H300z" fill="#fff"/><path d="M300 525.94h280v32H300z" fill="#e6e6e6"/><path d="M300 325.94h280v40H300z" fill="#ccc"/><path d="M300 330.94c0-2.76 2.24-5 5-5h270c2.76 0 5 2.24 5 5v222c0 2.76-2.24 5-5 5H305c-2.76 0-5-2.24-5-5zM300 365.94h280M572 365.94v192" stroke="#333" fill="none"/><use xlink:href="#h" transform="matrix(1,0,0,1,310,325.9375) translate(0 23.6)"/><use xlink:href="#i" transform="matrix(1,0,0,1,305,368.4375) translate(0 17.1)"/><use xlink:href="#j" transform="matrix(1,0,0,1,305,368.4375) translate(101.85000000000001 17.1)"/><use xlink:href="#k" transform="matrix(1,0,0,1,305,400.4375) translate(0 17.1)"/><use xlink:href="#l" transform="matrix(1,0,0,1,305,432.4375) translate(0 17.1)"/><use xlink:href="#m" transform="matrix(1,0,0,1,305,464.4375) translate(0 17.1)"/><use xlink:href="#n" transform="matrix(1,0,0,1,305,496.4375) translate(0 17.1)"/><use xlink:href="#o" transform="matrix(1,0,0,1,305,528.4375) translate(0 17.1)"/><path d="M720 805.87h280v33H720z" fill="#fff"/><path d="M720 837.87h280v33H720z" fill="#e6e6e6"/><path d="M720 869.87h280v32H720z" fill="#fff"/><path d="M720 765.87h280v40H720z" fill="#ccc"/><path d="M720 770.87c0-2.76 2.24-5 5-5h270c2.76 0 5 2.24 5 5v126c0 2.76-2.24 5-5 5H725c-2.76 0-5-2.24-5-5zM720 805.87h280M992 805.87v96" stroke="#333" fill="none"/><use xlink:href="#p" transform="matrix(1,0,0,1,730,765.873075834147) translate(0 23.6)"/><use xlink:href="#q" transform="matrix(1,0,0,1,725,808.373075834147) translate(0 17.1)"/><use xlink:href="#c" transform="matrix(1,0,0,1,725,808.373075834147) translate(102.85000000000001 17.1)"/><use xlink:href="#r" transform="matrix(1,0,0,1,725,840.373075834147) translate(0 17.1)"/><use xlink:href="#s" transform="matrix(1,0,0,1,725,872.373075834147) translate(0 17.1)"/><path d="M453.15 76c0-4.42 3.58-8 8-8h836.75c4.4 0 8 3.58 8 8v25.16c0 4.4-3.6 8-8 8H461.15c-4.42 0-8-3.6-8-8z" stroke="#000" stroke-opacity="0" stroke-width="2" fill="#fff" fill-opacity="0"/><use xlink:href="#t" transform="matrix(1,0,0,1,457.1465527853429,71.99999999994924) translate(222.1524479166667 25.598836805555553)"/><use xlink:href="#u" transform="matrix(1,0,0,1,457.1465527853429,71.99999999994924) translate(319.448671875 25.598836805555553)"/><use xlink:href="#v" transform="matrix(1,0,0,1,457.1465527853429,71.99999999994924) translate(387.21928819444446 25.598836805555553)"/><use xlink:href="#w" transform="matrix(1,0,0,1,457.1465527853429,71.99999999994924) translate(497.20409722222223 25.598836805555553)"/><use xlink:href="#x" transform="matrix(1,0,0,1,457.1465527853429,71.99999999994924) translate(533.3748871527778 25.598836805555553)"/><path d="M453.15 117.16c0-4.42 3.58-8 8-8h837.7c4.42 0 8 3.58 8 8V120c0 4.42-3.58 8-8 8h-837.7c-4.42 0-8-3.58-8-8z" stroke="#000" stroke-opacity="0" stroke-width="2" fill="#fff" fill-opacity="0"/><use xlink:href="#y" transform="matrix(1,0,0,1,457.1465527853434,113.15522395684805) translate(315.3268724279836 14.917037037037037)"/><use xlink:href="#z" transform="matrix(1,0,0,1,457.1465527853434,113.15522395684805) translate(361.9380864197531 14.917037037037037)"/><use xlink:href="#A" transform="matrix(1,0,0,1,457.1465527853434,113.15522395684805) translate(406.76473251028807 14.917037037037037)"/><use xlink:href="#B" transform="matrix(1,0,0,1,457.1465527853434,113.15522395684805) translate(419.2142181069959 14.917037037037037)"/><use xlink:href="#C" transform="matrix(1,0,0,1,457.1465527853434,113.15522395684805) translate(477.80753086419753 14.917037037037037)"/><use xlink:href="#D" transform="matrix(1,0,0,1,457.1465527853434,113.15522395684805) translate(503.30135802469135 14.917037037037037)"/><path d="M1240 317.94h200v33h-200z" fill="#fff"/><path d="M1240 349.94h200v33h-200z" fill="#e6e6e6"/><path d="M1240 381.94h200v33h-200z" fill="#fff"/><path d="M1240 413.94h200v33h-200z" fill="#e6e6e6"/><path d="M1240 445.94h200v33h-200z" fill="#fff"/><path d="M1240 477.94h200v32h-200z" fill="#e6e6e6"/><path d="M1240 277.94h200v40h-200z" fill="#ccc"/><path d="M1240 285.94c0-4.42 3.58-8 8-8h184c4.42 0 8 3.58 8 8v216c0 4.42-3.58 8-8 8h-184c-4.42 0-8-3.58-8-8zM1240 317.94h200" stroke="#333" fill="none"/><use xlink:href="#E" transform="matrix(1,0,0,1,1250,277.9375) translate(0 23.6)"/><use xlink:href="#F" transform="matrix(1,0,0,1,1245,320.4375) translate(0 17.1)"/><use xlink:href="#G" transform="matrix(1,0,0,1,1245,320.4375) translate(133.85000000000002 17.1)"/><use xlink:href="#H" transform="matrix(1,0,0,1,1245,352.4375) translate(0 17.1)"/><use xlink:href="#I" transform="matrix(1,0,0,1,1245,384.4375) translate(0 17.1)"/><use xlink:href="#J" transform="matrix(1,0,0,1,1245,416.4375) translate(0 17.1)"/><use xlink:href="#K" transform="matrix(1,0,0,1,1245,448.4375) translate(0 17.1)"/><use xlink:href="#L" transform="matrix(1,0,0,1,1245,480.4375) translate(0 17.1)"/><path d="M1240 630.6h200v33h-200z" fill="#fff"/><path d="M1240 662.6h200v33h-200z" fill="#e6e6e6"/><path d="M1240 694.6h200v33h-200z" fill="#fff"/><path d="M1240 726.6h200v33h-200z" fill="#e6e6e6"/><path d="M1240 758.6h200v33h-200z" fill="#fff"/><path d="M1240 790.6h200v33h-200z" fill="#e6e6e6"/><path d="M1240 822.6h200v32h-200z" fill="#fff"/><path d="M1240 590.6h200v40h-200z" fill="#ccc"/><path d="M1240 598.6c0-4.4 3.58-8 8-8h184c4.42 0 8 3.6 8 8v248c0 4.42-3.58 8-8 8h-184c-4.42 0-8-3.58-8-8zM1240 630.6h200" stroke="#333" fill="none"/><use xlink:href="#M" transform="matrix(1,0,0,1,1250,590.6056434896693) translate(0 23.6)"/><use xlink:href="#N" transform="matrix(1,0,0,1,1245,633.1056434896693) translate(0 17.1)"/><use xlink:href="#O" transform="matrix(1,0,0,1,1245,633.1056434896693) translate(106.85000000000001 17.1)"/><use xlink:href="#H" transform="matrix(1,0,0,1,1245,665.1056434896693) translate(0 17.1)"/><use xlink:href="#I" transform="matrix(1,0,0,1,1245,697.1056434896693) translate(0 17.1)"/><use xlink:href="#J" transform="matrix(1,0,0,1,1245,729.1056434896693) translate(0 17.1)"/><use xlink:href="#K" transform="matrix(1,0,0,1,1245,761.1056434896693) translate(0 17.1)"/><use xlink:href="#L" transform="matrix(1,0,0,1,1245,793.1056434896693) translate(0 17.1)"/><use xlink:href="#P" transform="matrix(1,0,0,1,1245,825.1056434896693) translate(0 17.1)"/><path d="M300 670.5h280v33H300z" fill="#fff"/><path d="M300 702.5h280v33H300z" fill="#e6e6e6"/><path d="M300 734.5h280v33H300z" fill="#fff"/><path d="M300 766.5h280v33H300z" fill="#e6e6e6"/><path d="M300 798.5h280v33H300z" fill="#fff"/><path d="M300 830.5h280v33H300z" fill="#e6e6e6"/><path d="M300 862.5h280v32H300z" fill="#fff"/><path d="M300 630.5h280v40H300z" fill="#ccc"/><path d="M300 635.5c0-2.76 2.24-5 5-5h270c2.76 0 5 2.24 5 5v254c0 2.76-2.24 5-5 5H305c-2.76 0-5-2.24-5-5zM300 670.5h280M572 670.5v224" stroke="#333" fill="none"/><use xlink:href="#Q" transform="matrix(1,0,0,1,310,630.4990424361728) translate(0 23.6)"/><use xlink:href="#R" transform="matrix(1,0,0,1,310,630.4990424361728) translate(103.80000000000001 23.6)"/><use xlink:href="#S" transform="matrix(1,0,0,1,305,672.9990424361728) translate(0 17.1)"/><use xlink:href="#c" transform="matrix(1,0,0,1,305,672.9990424361728) translate(94.80000000000001 17.1)"/><use xlink:href="#T" transform="matrix(1,0,0,1,305,704.9990424361728) translate(0 17.1)"/><use xlink:href="#U" transform="matrix(1,0,0,1,305,736.9990424361728) translate(0 17.1)"/><use xlink:href="#V" transform="matrix(1,0,0,1,305,768.9990424361728) translate(0 17.1)"/><use xlink:href="#W" transform="matrix(1,0,0,1,305,800.9990424361728) translate(0 17.1)"/><use xlink:href="#X" transform="matrix(1,0,0,1,305,832.9990424361728) translate(0 17.1)"/><use xlink:href="#o" transform="matrix(1,0,0,1,305,864.9990424361728) translate(0 17.1)"/><path d="M1220.1 646.23H1182c-6.63 0-12-5.38-12-12v-160.9c0-6.62 5.37-12 12-12h37.5" stroke="#333" fill="none"/><path d="M1239.28 656.23l-20-10 20-10" stroke="#333" fill="#fff" fill-opacity="0"/><path d="M1239.28 646.23h-20M1219.5 451.33v20M1239.5 461.33h-20" stroke="#333" fill="#fff"/><path d="M1039.9 413.94h180.2" stroke="#333" fill="none"/><path d="M1020.72 403.94l20 10-20 10" stroke="#333" fill="#fff" fill-opacity="0"/><path d="M1020.72 413.94h20" stroke="#333" fill="#fff"/><path d="M1239.28 423.95l-20-10 20-10" stroke="#333" fill="#fff" fill-opacity="0"/><path d="M1239.28 413.95h-20" stroke="#333" fill="#fff"/><path d="M600.5 413.84h59.45c.03 0 .05.02.05.05 0 .02.02.04.05.04h60.04" stroke="#333" fill="none"/><path d="M580.72 403.84l20 10-20 10" stroke="#333" fill="#fff" fill-opacity="0"/><path d="M580.72 413.84h20M600.72 423.84v-20" stroke="#333" fill="#fff"/><path d="M739.28 423.94l-20-10 20-10" stroke="#333" fill="#fff" fill-opacity="0"/><path d="M739.28 413.94h-20" stroke="#333" fill="#fff"/><path d="M440 578.44v32.15" stroke="#333" fill="none"/><path d="M430 578.44h20M440 558.44v20" stroke="#333" fill="#fff"/><path d="M430 629.78l10-20 10 20" stroke="#333" fill="#fff" fill-opacity="0"/><path d="M440 629.78v-20" stroke="#333" fill="#fff"/><path d="M620 718.5h18c6.63 0 12 5.37 12 12v111.37c0 6.63 5.37 12 12 12h18" stroke="#333" fill="none"/><path d="M590.5 728.5v-20M580.5 718.5h20M620.5 718.5c0 5.52-4.48 10-10 10s-10-4.48-10-10 4.48-10 10-10 10 4.48 10 10M709.5 843.87v20M719.5 853.87h-20M699.5 853.87c0 5.53-4.48 10-10 10s-10-4.47-10-10c0-5.52 4.48-10 10-10s10 4.48 10 10" stroke="#333" fill="#fff"/><path d="M860 745.37c0-.55-.45-1-1-1H702c-6.63 0-12-5.37-12-12V554.3c0-6.63-5.37-12-12-12h-78.1" stroke="#333" fill="none"/><path d="M870 745.37h-20M860 765.37v-20" stroke="#333" fill="#fff"/><path d="M580.72 532.3l20 10-20 10" stroke="#333" fill="#fff" fill-opacity="0"/><path d="M580.72 542.3h20" stroke="#333" fill="#fff"/><path d="M740 606.94h280v33H740z" fill="#fff"/><path d="M740 638.94h280v33H740z" fill="#e6e6e6"/><path d="M740 670.94h280v32H740z" fill="#fff"/><path d="M740 566.94h280v40H740z" fill="#ccc"/><path d="M740 571.94c0-2.76 2.24-5 5-5h270c2.76 0 5 2.24 5 5v126c0 2.76-2.24 5-5 5H745c-2.76 0-5-2.24-5-5zM740 606.94h280M1012 606.94v96" stroke="#333" fill="none"/><g><use xlink:href="#Y" transform="matrix(1,0,0,1,750,566.9389138175569) translate(0 23.6)"/></g><g><use xlink:href="#Z" transform="matrix(1,0,0,1,745,609.4389138175569) translate(0 17.1)"/><use xlink:href="#c" transform="matrix(1,0,0,1,745,609.4389138175569) translate(116.85000000000001 17.1)"/></g><g><use xlink:href="#aa" transform="matrix(1,0,0,1,745,641.4389138175569) translate(0 17.1)"/></g><g><use xlink:href="#ab" transform="matrix(1,0,0,1,745,673.4389138175569) translate(0 17.1)"/></g><path d="M720.1 622.9H672c-6.63 0-12-5.38-12-12v-135c0-6.63-5.37-12-12-12h-48.1" stroke="#333" fill="none"/><path d="M739.28 632.9l-20-10 20-10" stroke="#333" fill="#fff" fill-opacity="0"/><path d="M739.28 622.9h-20" stroke="#333" fill="#fff"/><path d="M580.72 453.9l20 10-20 10" stroke="#333" fill="#fff" fill-opacity="0"/><path d="M580.72 463.9h20" stroke="#333" fill="#fff"/><defs><path fill="#333" d="M185-189c-5-48-123-54-124 2 14 75 158 14 163 119 3 78-121 87-175 55-17-10-28-26-33-46l33-7c5 56 141 63 141-1 0-78-155-14-162-118-5-82 145-84 179-34 5 7 8 16 11 25" id="ac"/><path fill="#333" d="M59-47c-2 24 18 29 38 22v24C64 9 27 4 27-40v-127H5v-23h24l9-43h21v43h35v23H59v120" id="ad"/><path fill="#333" d="M100-194c62-1 85 37 85 99 1 63-27 99-86 99S16-35 15-95c0-66 28-99 85-99zM99-20c44 1 53-31 53-75 0-43-8-75-51-75s-53 32-53 75 10 74 51 75" id="ae"/><path fill="#333" d="M114-163C36-179 61-72 57 0H25l-1-190h30c1 12-1 29 2 39 6-27 23-49 58-41v29" id="af"/><path fill="#333" d="M100-194c63 0 86 42 84 106H49c0 40 14 67 53 68 26 1 43-12 49-29l28 8c-11 28-37 45-77 45C44 4 14-33 15-96c1-61 26-98 85-98zm52 81c6-60-76-77-97-28-3 7-6 17-6 28h103" id="ag"/><path fill="#333" d="M135-143c-3-34-86-38-87 0 15 53 115 12 119 90S17 21 10-45l28-5c4 36 97 45 98 0-10-56-113-15-118-90-4-57 82-63 122-42 12 7 21 19 24 35" id="ah"/><g id="a"><use transform="matrix(0.05,0,0,0.05,0,0)" xlink:href="#ac"/><use transform="matrix(0.05,0,0,0.05,12,0)" xlink:href="#ad"/><use transform="matrix(0.05,0,0,0.05,17,0)" xlink:href="#ae"/><use transform="matrix(0.05,0,0,0.05,27,0)" xlink:href="#af"/><use transform="matrix(0.05,0,0,0.05,32.95,0)" xlink:href="#ag"/><use transform="matrix(0.05,0,0,0.05,42.95,0)" xlink:href="#ah"/></g><path fill="#333" d="M-5 72V49h209v23H-5" id="ai"/><path fill="#333" d="M24-231v-30h32v30H24zM24 0v-190h32V0H24" id="aj"/><path fill="#333" d="M85-194c31 0 48 13 60 33l-1-100h32l1 261h-30c-2-10 0-23-3-31C134-8 116 4 85 4 32 4 16-35 15-94c0-66 23-100 70-100zm9 24c-40 0-46 34-46 75 0 40 6 74 45 74 42 0 51-32 51-76 0-42-9-74-50-73" id="ak"/><g id="b"><use transform="matrix(0.05,0,0,0.05,0,0)" xlink:href="#ah"/><use transform="matrix(0.05,0,0,0.05,9,0)" xlink:href="#ad"/><use transform="matrix(0.05,0,0,0.05,14,0)" xlink:href="#ae"/><use transform="matrix(0.05,0,0,0.05,24,0)" xlink:href="#af"/><use transform="matrix(0.05,0,0,0.05,29.950000000000003,0)" xlink:href="#ag"/><use transform="matrix(0.05,0,0,0.05,39.95,0)" xlink:href="#ai"/><use transform="matrix(0.05,0,0,0.05,49.95,0)" xlink:href="#aj"/><use transform="matrix(0.05,0,0,0.05,53.900000000000006,0)" xlink:href="#ak"/></g><path fill="#333" d="M80-196l47-18 7 23-49 13 32 44-20 13-27-46-27 45-21-12 33-44-49-13 8-23 47 19-2-53h23" id="al"/><use transform="matrix(0.05,0,0,0.05,0,0)" xlink:href="#al" id="c"/><path fill="#333" d="M210-169c-67 3-38 105-44 169h-31v-121c0-29-5-50-35-48C34-165 62-65 56 0H25l-1-190h30c1 10-1 24 2 32 10-44 99-50 107 0 11-21 27-35 58-36 85-2 47 119 55 194h-31v-121c0-29-5-49-35-48" id="am"/><path fill="#333" d="M141-36C126-15 110 5 73 4 37 3 15-17 15-53c-1-64 63-63 125-63 3-35-9-54-41-54-24 1-41 7-42 31l-33-3c5-37 33-52 76-52 45 0 72 20 72 64v82c-1 20 7 32 28 27v20c-31 9-61-2-59-35zM48-53c0 20 12 33 32 33 41-3 63-29 60-74-43 2-92-5-92 41" id="an"/><path fill="#333" d="M117-194c89-4 53 116 60 194h-32v-121c0-31-8-49-39-48C34-167 62-67 57 0H25l-1-190h30c1 10-1 24 2 32 11-22 29-35 61-36" id="ao"/><path fill="#333" d="M177-190C167-65 218 103 67 71c-23-6-38-20-44-43l32-5c15 47 100 32 89-28v-30C133-14 115 1 83 1 29 1 15-40 15-95c0-56 16-97 71-98 29-1 48 16 59 35 1-10 0-23 2-32h30zM94-22c36 0 50-32 50-73 0-42-14-75-50-75-39 0-46 34-46 75s6 73 46 73" id="ap"/><g id="d"><use transform="matrix(0.05,0,0,0.05,0,0)" xlink:href="#am"/><use transform="matrix(0.05,0,0,0.05,14.950000000000001,0)" xlink:href="#an"/><use transform="matrix(0.05,0,0,0.05,24.950000000000003,0)" xlink:href="#ao"/><use transform="matrix(0.05,0,0,0.05,34.95,0)" xlink:href="#an"/><use transform="matrix(0.05,0,0,0.05,44.95,0)" xlink:href="#ap"/><use transform="matrix(0.05,0,0,0.05,54.95,0)" xlink:href="#ag"/><use transform="matrix(0.05,0,0,0.05,64.95,0)" xlink:href="#am"/><use transform="matrix(0.05,0,0,0.05,79.9,0)" xlink:href="#ag"/><use transform="matrix(0.05,0,0,0.05,89.9,0)" xlink:href="#ao"/><use transform="matrix(0.05,0,0,0.05,99.9,0)" xlink:href="#ad"/><use transform="matrix(0.05,0,0,0.05,104.9,0)" xlink:href="#ai"/><use transform="matrix(0.05,0,0,0.05,114.9,0)" xlink:href="#aj"/><use transform="matrix(0.05,0,0,0.05,118.85000000000001,0)" xlink:href="#ak"/></g><path fill="#333" d="M24 0v-261h32V0H24" id="aq"/><path fill="#333" d="M96-169c-40 0-48 33-48 73s9 75 48 75c24 0 41-14 43-38l32 2c-6 37-31 61-74 61-59 0-76-41-82-99-10-93 101-131 147-64 4 7 5 14 7 22l-32 3c-4-21-16-35-41-35" id="ar"/><g id="e"><use transform="matrix(0.05,0,0,0.05,0,0)" xlink:href="#ah"/><use transform="matrix(0.05,0,0,0.05,9,0)" xlink:href="#ad"/><use transform="matrix(0.05,0,0,0.05,14,0)" xlink:href="#ae"/><use transform="matrix(0.05,0,0,0.05,24,0)" xlink:href="#af"/><use transform="matrix(0.05,0,0,0.05,29.950000000000003,0)" xlink:href="#ag"/><use transform="matrix(0.05,0,0,0.05,39.95,0)" xlink:href="#ai"/><use transform="matrix(0.05,0,0,0.05,49.95,0)" xlink:href="#aq"/><use transform="matrix(0.05,0,0,0.05,53.900000000000006,0)" xlink:href="#ae"/><use transform="matrix(0.05,0,0,0.05,63.900000000000006,0)" xlink:href="#ar"/><use transform="matrix(0.05,0,0,0.05,72.9,0)" xlink:href="#an"/><use transform="matrix(0.05,0,0,0.05,82.9,0)" xlink:href="#ad"/><use transform="matrix(0.05,0,0,0.05,87.9,0)" xlink:href="#aj"/><use transform="matrix(0.05,0,0,0.05,91.85000000000001,0)" xlink:href="#ae"/><use transform="matrix(0.05,0,0,0.05,101.85000000000001,0)" xlink:href="#ao"/></g><path fill="#333" d="M145-31C134-9 116 4 85 4 32 4 16-35 15-94c0-59 17-99 70-100 32-1 48 14 60 33 0-11-1-24 2-32h30l-1 268h-32zM93-21c41 0 51-33 51-76s-8-73-50-73c-40 0-46 35-46 75s5 74 45 74" id="as"/><path fill="#333" d="M179-190L93 31C79 59 56 82 12 73V49c39 6 53-20 64-50L1-190h34L92-34l54-156h33" id="at"/><path fill="#333" d="M108 0H70L1-190h34L89-25l56-165h34" id="au"/><path fill="#333" d="M84 4C-5 8 30-112 23-190h32v120c0 31 7 50 39 49 72-2 45-101 50-169h31l1 190h-30c-1-10 1-25-2-33-11 22-28 36-60 37" id="av"/><g id="f"><use transform="matrix(0.05,0,0,0.05,0,0)" xlink:href="#as"/><use transform="matrix(0.05,0,0,0.05,10,0)" xlink:href="#ad"/><use transform="matrix(0.05,0,0,0.05,15,0)" xlink:href="#af"/><use transform="matrix(0.05,0,0,0.05,20.95,0)" xlink:href="#aq"/><use transform="matrix(0.05,0,0,0.05,24.9,0)" xlink:href="#at"/><use transform="matrix(0.05,0,0,0.05,33.9,0)" xlink:href="#ai"/><use transform="matrix(0.05,0,0,0.05,43.9,0)" xlink:href="#af"/><use transform="matrix(0.05,0,0,0.05,49.85,0)" xlink:href="#ag"/><use transform="matrix(0.05,0,0,0.05,59.85,0)" xlink:href="#au"/><use transform="matrix(0.05,0,0,0.05,68.85,0)" xlink:href="#ag"/><use transform="matrix(0.05,0,0,0.05,78.85,0)" xlink:href="#ao"/><use transform="matrix(0.05,0,0,0.05,88.85,0)" xlink:href="#av"/><use transform="matrix(0.05,0,0,0.05,98.85,0)" xlink:href="#ag"/></g><path fill="#333" d="M106-169C34-169 62-67 57 0H25v-261h32l-1 103c12-21 28-36 61-36 89 0 53 116 60 194h-32v-121c2-32-8-49-39-48" id="aw"/><g id="g"><use transform="matrix(0.05,0,0,0.05,0,0)" xlink:href="#as"/><use transform="matrix(0.05,0,0,0.05,10,0)" xlink:href="#ad"/><use transform="matrix(0.05,0,0,0.05,15,0)" xlink:href="#af"/><use transform="matrix(0.05,0,0,0.05,20.95,0)" xlink:href="#aq"/><use transform="matrix(0.05,0,0,0.05,24.9,0)" xlink:href="#at"/><use transform="matrix(0.05,0,0,0.05,33.9,0)" xlink:href="#ai"/><use transform="matrix(0.05,0,0,0.05,43.9,0)" xlink:href="#ae"/><use transform="matrix(0.05,0,0,0.05,53.900000000000006,0)" xlink:href="#au"/><use transform="matrix(0.05,0,0,0.05,62.900000000000006,0)" xlink:href="#ag"/><use transform="matrix(0.05,0,0,0.05,72.9,0)" xlink:href="#af"/><use transform="matrix(0.05,0,0,0.05,78.85000000000001,0)" xlink:href="#aw"/><use transform="matrix(0.05,0,0,0.05,88.85000000000001,0)" xlink:href="#ag"/><use transform="matrix(0.05,0,0,0.05,98.85000000000001,0)" xlink:href="#an"/><use transform="matrix(0.05,0,0,0.05,108.85000000000001,0)" xlink:href="#ak"/></g><path fill="#333" d="M33 0v-248h34V0H33" id="ax"/><g id="h"><use transform="matrix(0.05,0,0,0.05,0,0)" xlink:href="#ax"/><use transform="matrix(0.05,0,0,0.05,5,0)" xlink:href="#ao"/><use transform="matrix(0.05,0,0,0.05,15,0)" xlink:href="#au"/><use transform="matrix(0.05,0,0,0.05,24,0)" xlink:href="#ag"/><use transform="matrix(0.05,0,0,0.05,34,0)" xlink:href="#ao"/><use transform="matrix(0.05,0,0,0.05,44,0)" xlink:href="#ad"/><use transform="matrix(0.05,0,0,0.05,49,0)" xlink:href="#ae"/><use transform="matrix(0.05,0,0,0.05,59,0)" xlink:href="#af"/><use transform="matrix(0.05,0,0,0.05,64.95,0)" xlink:href="#at"/></g><path d="M24-231v-30h32v30H24zM24 0v-190h32V0H24" id="ay"/><path d="M117-194c89-4 53 116 60 194h-32v-121c0-31-8-49-39-48C34-167 62-67 57 0H25l-1-190h30c1 10-1 24 2 32 11-22 29-35 61-36" id="az"/><path d="M108 0H70L1-190h34L89-25l56-165h34" id="aA"/><path d="M100-194c63 0 86 42 84 106H49c0 40 14 67 53 68 26 1 43-12 49-29l28 8c-11 28-37 45-77 45C44 4 14-33 15-96c1-61 26-98 85-98zm52 81c6-60-76-77-97-28-3 7-6 17-6 28h103" id="aB"/><path d="M59-47c-2 24 18 29 38 22v24C64 9 27 4 27-40v-127H5v-23h24l9-43h21v43h35v23H59v120" id="aC"/><path d="M100-194c62-1 85 37 85 99 1 63-27 99-86 99S16-35 15-95c0-66 28-99 85-99zM99-20c44 1 53-31 53-75 0-43-8-75-51-75s-53 32-53 75 10 74 51 75" id="aD"/><path d="M114-163C36-179 61-72 57 0H25l-1-190h30c1 12-1 29 2 39 6-27 23-49 58-41v29" id="aE"/><path d="M179-190L93 31C79 59 56 82 12 73V49c39 6 53-20 64-50L1-190h34L92-34l54-156h33" id="aF"/><path d="M-5 72V49h209v23H-5" id="aG"/><path d="M85-194c31 0 48 13 60 33l-1-100h32l1 261h-30c-2-10 0-23-3-31C134-8 116 4 85 4 32 4 16-35 15-94c0-66 23-100 70-100zm9 24c-40 0-46 34-46 75 0 40 6 74 45 74 42 0 51-32 51-76 0-42-9-74-50-73" id="aH"/><g id="i"><use transform="matrix(0.05,0,0,0.05,0,0)" xlink:href="#ay"/><use transform="matrix(0.05,0,0,0.05,3.95,0)" xlink:href="#az"/><use transform="matrix(0.05,0,0,0.05,13.949999999999998,0)" xlink:href="#aA"/><use transform="matrix(0.05,0,0,0.05,22.95,0)" xlink:href="#aB"/><use transform="matrix(0.05,0,0,0.05,32.95,0)" xlink:href="#az"/><use transform="matrix(0.05,0,0,0.05,42.95,0)" xlink:href="#aC"/><use transform="matrix(0.05,0,0,0.05,47.95,0)" xlink:href="#aD"/><use transform="matrix(0.05,0,0,0.05,57.95,0)" xlink:href="#aE"/><use transform="matrix(0.05,0,0,0.05,63.900000000000006,0)" xlink:href="#aF"/><use transform="matrix(0.05,0,0,0.05,72.9,0)" xlink:href="#aG"/><use transform="matrix(0.05,0,0,0.05,82.9,0)" xlink:href="#ay"/><use transform="matrix(0.05,0,0,0.05,86.85000000000001,0)" xlink:href="#aH"/></g><path d="M80-196l47-18 7 23-49 13 32 44-20 13-27-46-27 45-21-12 33-44-49-13 8-23 47 19-2-53h23" id="aI"/><use transform="matrix(0.05,0,0,0.05,0,0)" xlink:href="#aI" id="j"/><path fill="#333" d="M115-194c55 1 70 41 70 98S169 2 115 4C84 4 66-9 55-30l1 105H24l-1-265h31l2 30c10-21 28-34 59-34zm-8 174c40 0 45-34 45-75s-6-73-45-74c-42 0-51 32-51 76 0 43 10 73 51 73" id="aJ"/><g id="k"><use transform="matrix(0.05,0,0,0.05,0,0)" xlink:href="#aJ"/><use transform="matrix(0.05,0,0,0.05,10,0)" xlink:href="#af"/><use transform="matrix(0.05,0,0,0.05,15.949999999999998,0)" xlink:href="#ae"/><use transform="matrix(0.05,0,0,0.05,25.950000000000003,0)" xlink:href="#ak"/><use transform="matrix(0.05,0,0,0.05,35.95,0)" xlink:href="#av"/><use transform="matrix(0.05,0,0,0.05,45.95,0)" xlink:href="#ar"/><use transform="matrix(0.05,0,0,0.05,54.95,0)" xlink:href="#ad"/><use transform="matrix(0.05,0,0,0.05,59.95,0)" xlink:href="#ai"/><use transform="matrix(0.05,0,0,0.05,69.95,0)" xlink:href="#ao"/><use transform="matrix(0.05,0,0,0.05,79.95,0)" xlink:href="#an"/><use transform="matrix(0.05,0,0,0.05,89.95,0)" xlink:href="#am"/><use transform="matrix(0.05,0,0,0.05,104.9,0)" xlink:href="#ag"/></g><g id="l"><use transform="matrix(0.05,0,0,0.05,0,0)" xlink:href="#aJ"/><use transform="matrix(0.05,0,0,0.05,10,0)" xlink:href="#af"/><use transform="matrix(0.05,0,0,0.05,15.949999999999998,0)" xlink:href="#ae"/><use transform="matrix(0.05,0,0,0.05,25.950000000000003,0)" xlink:href="#ak"/><use transform="matrix(0.05,0,0,0.05,35.95,0)" xlink:href="#av"/><use transform="matrix(0.05,0,0,0.05,45.95,0)" xlink:href="#ar"/><use transform="matrix(0.05,0,0,0.05,54.95,0)" xlink:href="#ad"/><use transform="matrix(0.05,0,0,0.05,59.95,0)" xlink:href="#ai"/><use transform="matrix(0.05,0,0,0.05,69.95,0)" xlink:href="#ak"/><use transform="matrix(0.05,0,0,0.05,79.95,0)" xlink:href="#ag"/><use transform="matrix(0.05,0,0,0.05,89.95,0)" xlink:href="#ah"/><use transform="matrix(0.05,0,0,0.05,98.95,0)" xlink:href="#ar"/><use transform="matrix(0.05,0,0,0.05,107.95,0)" xlink:href="#af"/><use transform="matrix(0.05,0,0,0.05,113.9,0)" xlink:href="#aj"/><use transform="matrix(0.05,0,0,0.05,117.85000000000001,0)" xlink:href="#aJ"/><use transform="matrix(0.05,0,0,0.05,127.85000000000001,0)" xlink:href="#ad"/><use transform="matrix(0.05,0,0,0.05,132.85000000000002,0)" xlink:href="#aj"/><use transform="matrix(0.05,0,0,0.05,136.8,0)" xlink:href="#ae"/><use transform="matrix(0.05,0,0,0.05,146.8,0)" xlink:href="#ao"/></g><path d="M96-169c-40 0-48 33-48 73s9 75 48 75c24 0 41-14 43-38l32 2c-6 37-31 61-74 61-59 0-76-41-82-99-10-93 101-131 147-64 4 7 5 14 7 22l-32 3c-4-21-16-35-41-35" id="aK"/><path d="M84 4C-5 8 30-112 23-190h32v120c0 31 7 50 39 49 72-2 45-101 50-169h31l1 190h-30c-1-10 1-25-2-33-11 22-28 36-60 37" id="aL"/><g id="m"><use transform="matrix(0.05,0,0,0.05,0,0)" xlink:href="#ay"/><use transform="matrix(0.05,0,0,0.05,3.95,0)" xlink:href="#az"/><use transform="matrix(0.05,0,0,0.05,13.949999999999998,0)" xlink:href="#aA"/><use transform="matrix(0.05,0,0,0.05,22.95,0)" xlink:href="#aB"/><use transform="matrix(0.05,0,0,0.05,32.95,0)" xlink:href="#az"/><use transform="matrix(0.05,0,0,0.05,42.95,0)" xlink:href="#aC"/><use transform="matrix(0.05,0,0,0.05,47.95,0)" xlink:href="#aD"/><use transform="matrix(0.05,0,0,0.05,57.95,0)" xlink:href="#aE"/><use transform="matrix(0.05,0,0,0.05,63.900000000000006,0)" xlink:href="#aF"/><use transform="matrix(0.05,0,0,0.05,72.9,0)" xlink:href="#aG"/><use transform="matrix(0.05,0,0,0.05,82.9,0)" xlink:href="#aK"/><use transform="matrix(0.05,0,0,0.05,91.9,0)" xlink:href="#aD"/><use transform="matrix(0.05,0,0,0.05,101.9,0)" xlink:href="#aL"/><use transform="matrix(0.05,0,0,0.05,111.9,0)" xlink:href="#az"/><use transform="matrix(0.05,0,0,0.05,121.9,0)" xlink:href="#aC"/></g><path d="M135-143c-3-34-86-38-87 0 15 53 115 12 119 90S17 21 10-45l28-5c4 36 97 45 98 0-10-56-113-15-118-90-4-57 82-63 122-42 12 7 21 19 24 35" id="aM"/><g id="n"><use transform="matrix(0.05,0,0,0.05,0,0)" xlink:href="#aM"/><use transform="matrix(0.05,0,0,0.05,9,0)" xlink:href="#aC"/><use transform="matrix(0.05,0,0,0.05,14,0)" xlink:href="#aD"/><use transform="matrix(0.05,0,0,0.05,24,0)" xlink:href="#aE"/><use transform="matrix(0.05,0,0,0.05,29.950000000000003,0)" xlink:href="#aB"/><use transform="matrix(0.05,0,0,0.05,39.95,0)" xlink:href="#aG"/><use transform="matrix(0.05,0,0,0.05,49.95,0)" xlink:href="#ay"/><use transform="matrix(0.05,0,0,0.05,53.900000000000006,0)" xlink:href="#aH"/></g><path d="M210-169c-67 3-38 105-44 169h-31v-121c0-29-5-50-35-48C34-165 62-65 56 0H25l-1-190h30c1 10-1 24 2 32 10-44 99-50 107 0 11-21 27-35 58-36 85-2 47 119 55 194h-31v-121c0-29-5-49-35-48" id="aN"/><path d="M115-194c55 1 70 41 70 98S169 2 115 4C84 4 66-9 55-30l1 105H24l-1-265h31l2 30c10-21 28-34 59-34zm-8 174c40 0 45-34 45-75s-6-73-45-74c-42 0-51 32-51 76 0 43 10 73 51 73" id="aO"/><path d="M177-190C167-65 218 103 67 71c-23-6-38-20-44-43l32-5c15 47 100 32 89-28v-30C133-14 115 1 83 1 29 1 15-40 15-95c0-56 16-97 71-98 29-1 48 16 59 35 1-10 0-23 2-32h30zM94-22c36 0 50-32 50-73 0-42-14-75-50-75-39 0-46 34-46 75s6 73 46 73" id="aP"/><g id="o"><use transform="matrix(0.05,0,0,0.05,0,0)" xlink:href="#aN"/><use transform="matrix(0.05,0,0,0.05,14.950000000000001,0)" xlink:href="#aB"/><use transform="matrix(0.05,0,0,0.05,24.950000000000003,0)" xlink:href="#aN"/><use transform="matrix(0.05,0,0,0.05,39.900000000000006,0)" xlink:href="#aG"/><use transform="matrix(0.05,0,0,0.05,49.900000000000006,0)" xlink:href="#aO"/><use transform="matrix(0.05,0,0,0.05,59.900000000000006,0)" xlink:href="#aE"/><use transform="matrix(0.05,0,0,0.05,65.85000000000001,0)" xlink:href="#aD"/><use transform="matrix(0.05,0,0,0.05,75.85000000000001,0)" xlink:href="#aP"/><use transform="matrix(0.05,0,0,0.05,85.85000000000001,0)" xlink:href="#aG"/><use transform="matrix(0.05,0,0,0.05,95.85000000000001,0)" xlink:href="#aO"/><use transform="matrix(0.05,0,0,0.05,105.85000000000001,0)" xlink:href="#aC"/><use transform="matrix(0.05,0,0,0.05,110.85000000000001,0)" xlink:href="#aM"/></g><path fill="#333" d="M212-179c-10-28-35-45-73-45-59 0-87 40-87 99 0 60 29 101 89 101 43 0 62-24 78-52l27 14C228-24 195 4 139 4 59 4 22-46 18-125c-6-104 99-153 187-111 19 9 31 26 39 46" id="aQ"/><g id="p"><use transform="matrix(0.05,0,0,0.05,0,0)" xlink:href="#aQ"/><use transform="matrix(0.05,0,0,0.05,12.950000000000001,0)" xlink:href="#av"/><use transform="matrix(0.05,0,0,0.05,22.950000000000003,0)" xlink:href="#ah"/><use transform="matrix(0.05,0,0,0.05,31.950000000000003,0)" xlink:href="#ad"/><use transform="matrix(0.05,0,0,0.05,36.95,0)" xlink:href="#ae"/><use transform="matrix(0.05,0,0,0.05,46.95,0)" xlink:href="#am"/><use transform="matrix(0.05,0,0,0.05,61.900000000000006,0)" xlink:href="#ag"/><use transform="matrix(0.05,0,0,0.05,71.9,0)" xlink:href="#af"/><use transform="matrix(0.05,0,0,0.05,77.85000000000001,0)" xlink:href="#ah"/></g><g id="q"><use transform="matrix(0.05,0,0,0.05,0,0)" xlink:href="#ar"/><use transform="matrix(0.05,0,0,0.05,9,0)" xlink:href="#av"/><use transform="matrix(0.05,0,0,0.05,19,0)" xlink:href="#ah"/><use transform="matrix(0.05,0,0,0.05,28,0)" xlink:href="#ad"/><use transform="matrix(0.05,0,0,0.05,33,0)" xlink:href="#ae"/><use transform="matrix(0.05,0,0,0.05,43,0)" xlink:href="#am"/><use transform="matrix(0.05,0,0,0.05,57.95,0)" xlink:href="#ag"/><use transform="matrix(0.05,0,0,0.05,67.95,0)" xlink:href="#af"/><use transform="matrix(0.05,0,0,0.05,73.9,0)" xlink:href="#ai"/><use transform="matrix(0.05,0,0,0.05,83.9,0)" xlink:href="#aj"/><use transform="matrix(0.05,0,0,0.05,87.85000000000001,0)" xlink:href="#ak"/></g><g id="r"><use transform="matrix(0.05,0,0,0.05,0,0)" xlink:href="#ad"/><use transform="matrix(0.05,0,0,0.05,5,0)" xlink:href="#af"/><use transform="matrix(0.05,0,0,0.05,10.95,0)" xlink:href="#an"/><use transform="matrix(0.05,0,0,0.05,20.95,0)" xlink:href="#ao"/><use transform="matrix(0.05,0,0,0.05,30.950000000000003,0)" xlink:href="#ah"/><use transform="matrix(0.05,0,0,0.05,39.95,0)" xlink:href="#an"/><use transform="matrix(0.05,0,0,0.05,49.95,0)" xlink:href="#ar"/><use transform="matrix(0.05,0,0,0.05,58.95,0)" xlink:href="#ad"/><use transform="matrix(0.05,0,0,0.05,63.95,0)" xlink:href="#aj"/><use transform="matrix(0.05,0,0,0.05,67.9,0)" xlink:href="#ae"/><use transform="matrix(0.05,0,0,0.05,77.9,0)" xlink:href="#ao"/><use transform="matrix(0.05,0,0,0.05,87.9,0)" xlink:href="#ai"/><use transform="matrix(0.05,0,0,0.05,97.9,0)" xlink:href="#aj"/><use transform="matrix(0.05,0,0,0.05,101.85000000000001,0)" xlink:href="#ak"/></g><path fill="#333" d="M115-194c53 0 69 39 70 98 0 66-23 100-70 100C84 3 66-7 56-30L54 0H23l1-261h32v101c10-23 28-34 59-34zm-8 174c40 0 45-34 45-75 0-40-5-75-45-74-42 0-51 32-51 76 0 43 10 73 51 73" id="aR"/><g id="s"><use transform="matrix(0.05,0,0,0.05,0,0)" xlink:href="#am"/><use transform="matrix(0.05,0,0,0.05,14.950000000000001,0)" xlink:href="#ag"/><use transform="matrix(0.05,0,0,0.05,24.950000000000003,0)" xlink:href="#am"/><use transform="matrix(0.05,0,0,0.05,39.900000000000006,0)" xlink:href="#aR"/><use transform="matrix(0.05,0,0,0.05,49.900000000000006,0)" xlink:href="#ag"/><use transform="matrix(0.05,0,0,0.05,59.900000000000006,0)" xlink:href="#af"/><use transform="matrix(0.05,0,0,0.05,65.85000000000001,0)" xlink:href="#ah"/><use transform="matrix(0.05,0,0,0.05,74.85000000000001,0)" xlink:href="#aw"/><use transform="matrix(0.05,0,0,0.05,84.85000000000001,0)" xlink:href="#aj"/><use transform="matrix(0.05,0,0,0.05,88.80000000000001,0)" xlink:href="#aJ"/><use transform="matrix(0.05,0,0,0.05,98.80000000000001,0)" xlink:href="#ai"/><use transform="matrix(0.05,0,0,0.05,108.80000000000001,0)" xlink:href="#aR"/><use transform="matrix(0.05,0,0,0.05,118.80000000000001,0)" xlink:href="#ae"/><use transform="matrix(0.05,0,0,0.05,128.8,0)" xlink:href="#ae"/><use transform="matrix(0.05,0,0,0.05,138.8,0)" xlink:href="#aq"/><use transform="matrix(0.05,0,0,0.05,142.75,0)" xlink:href="#ag"/><use transform="matrix(0.05,0,0,0.05,152.75,0)" xlink:href="#an"/><use transform="matrix(0.05,0,0,0.05,162.75,0)" xlink:href="#ao"/></g><path fill="#a9afb8" d="M1093-169C944-46 755 79 489 14 221-51 55-249 55-582c0-346 170-557 421-660 197-81 486-47 619 54-4 69-58 131-89 182-8 12-16 20-22 25l-63-14c-66-94-139-170-293-170-187 0-263 170-303 345-27 119-22 309 14 413 53 156 146 272 337 279 72 3 129-14 177-37v-305c-2-43-34-49-73-62-21-7-51-13-88-20v-73h498v73c-58 15-97 31-97 82v301" id="aS"/><path fill="#a9afb8" d="M418-773c69-91 151-187 299-187 60 0 116 20 158 44 4 3 6 12 6 26 0 113-38 223-71 311h-73c-7-74-23-146-67-181-43-34-105-7-137 22-48 43-80 95-113 167v437c0 10 14 20 42 31s72 21 135 30V0H48v-73c88-20 132-40 132-61-1-195-2-395-2-586 0-82-49-99-130-98v-70c121-16 215-37 315-72l42 42" id="aT"/><path fill="#a9afb8" d="M547-95c182-3 211-159 211-345 0-159-46-293-136-363-28-21-59-32-93-32-183 0-211 174-211 362 0 156 53 282 142 349 28 20 56 29 87 29zm197-829c193 78 317 304 248 570C945-174 822-46 648 10 468 68 279-10 189-105 84-216 25-453 102-636c75-177 215-324 456-324 68 0 130 13 186 36" id="aU"/><path fill="#a9afb8" d="M567-138c129-2 186-59 272-116l54 64C782-73 692 30 480 30 279 30 161-92 100-245c-47-118-44-283 5-401 91-217 343-368 656-292 46 11 97 29 124 57-11 97-44 188-79 261l-67-10c-41-109-79-205-209-205-176 0-225 169-225 360 0 155 58 262 160 314 32 15 66 23 102 23" id="aV"/><path fill="#a9afb8" d="M687-616c0-120-53-224-176-224-146 0-179 124-195 260h333c31-1 38-6 38-36zm233 421C797-79 706 34 480 30 277 26 159-94 98-249c-51-132-43-317 18-435 76-147 214-276 431-276 252 0 370 162 379 410-35 35-91 61-140 82H313c10 180 71 330 251 330 142 0 208-61 304-121 21 14 39 43 52 64" id="aW"/><path fill="#a9afb8" d="M1027-857c-52 13-92 21-110 68L583 75c-71 175-154 321-316 394-97 43-242 24-311-23-29-19-21-25-1-56 32-50 83-111 130-145 52 34 119 57 188 33 96-33 146-148 186-255L124-789c-20-44-53-54-111-68v-73h453v73c-40 6-69 7-90 23-15 12-7 27 0 45l206 502c67-176 140-348 204-527-5-37-47-32-86-43v-73h327v73" id="aX"/><g id="t"><use transform="matrix(0.012803819444444444,0,0,0.012803819444444444,0,0)" xlink:href="#aS"/><use transform="matrix(0.012803819444444444,0,0,0.012803819444444444,15.774305555555555,0)" xlink:href="#aT"/><use transform="matrix(0.012803819444444444,0,0,0.012803819444444444,27.412977430555554,0)" xlink:href="#aU"/><use transform="matrix(0.012803819444444444,0,0,0.012803819444444444,41.177083333333336,0)" xlink:href="#aV"/><use transform="matrix(0.012803819444444444,0,0,0.012803819444444444,53.123046875,0)" xlink:href="#aW"/><use transform="matrix(0.012803819444444444,0,0,0.012803819444444444,65.81163194444444,0)" xlink:href="#aT"/><use transform="matrix(0.012803819444444444,0,0,0.012803819444444444,77.45030381944444,0)" xlink:href="#aX"/></g><path fill="#a9afb8" d="M644-1140c-115-71-322-32-312 118 8 121 112 163 201 211 153 82 329 146 407 303 48 97 22 239-26 316C821-43 638 56 388 23 288 10 187-22 116-68c-27-84-10-232 8-316l71 5c44 110 112 202 218 247 31 13 64 19 98 19 132 0 232-64 232-196 0-191-180-234-315-303-146-75-316-135-316-348 0-157 120-245 251-296 162-62 445-37 543 58 4 63-40 124-67 170-6 11-14 18-19 23l-66-6c-26-57-62-99-110-129" id="aY"/><path fill="#a9afb8" d="M480-153c90 0 143-40 212-75l44 73C647-91 572-44 511-14S401 30 366 30C216 30 155-87 155-244v-561H34L5-841l78-89h72v-209l202-149 38 33v325h305l36 36c-27 45-62 92-101 124-61-29-146-39-240-35v468c3 90 5 184 85 184" id="aZ"/><g id="u"><use transform="matrix(0.012803819444444444,0,0,0.012803819444444444,0,0)" xlink:href="#aY"/><use transform="matrix(0.012803819444444444,0,0,0.012803819444444444,13.444010416666666,0)" xlink:href="#aZ"/><use transform="matrix(0.012803819444444444,0,0,0.012803819444444444,23.149305555555557,0)" xlink:href="#aU"/><use transform="matrix(0.012803819444444444,0,0,0.012803819444444444,36.913411458333336,0)" xlink:href="#aT"/><use transform="matrix(0.012803819444444444,0,0,0.012803819444444444,48.552083333333336,0)" xlink:href="#aW"/></g><path fill="#a9afb8" d="M578-1290c408 0 643 208 643 614 0 370-167 586-463 660C711-4 664 0 619 0H43v-73c45-9 80-20 103-31s34-21 34-30v-1023l-137 19-13-92c159-36 354-60 548-60zm375 653c-1-354-149-573-523-545v1015c7 64 80 60 152 60 213 0 307-172 354-361 12-50 17-106 17-169" id="ba"/><path fill="#a9afb8" d="M319-259c0 68 31 114 93 114 98 0 147-56 211-105v-221c-153 26-304 50-304 212zm584 99c38 0 59-16 91-27l22 75C927-56 834 9 717 30c-65-8-88-81-93-159C538-47 445 30 293 30 154 30 65-56 65-201c0-127 64-194 141-247 107-73 248-95 417-121v-118c9-110-74-169-178-134-46 15-82 54-78 119-52 44-150 61-229 78-15 2-26 3-31 2l-21-54c84-172 266-284 511-284 166 0 266 79 266 240v482c0 44 7 78 40 78" id="bb"/><path fill="#a9afb8" d="M597-138c150 0 207-123 207-278 0-165-34-294-136-352-26-15-55-20-86-20-92 0-144 50-217 110v460c77 42 148 80 232 80zM365-802c94-76 190-158 340-158 237 0 320 206 320 453 0 216-140 349-275 449-65 48-150 88-251 88-145 0-261-74-374-126v-1170c-1-70 1-115-57-125-16-3-38-6-65-9v-70c117-19 223-41 318-80 13 13 30 27 44 41v707" id="bc"/><path fill="#a9afb8" d="M547-808c-63-73-243-61-239 50 3 86 72 111 134 148 111 66 258 113 318 230 15 28 22 60 22 97C778-32 571 47 316 26 231 19 152-9 90-43c-26-75-10-216 7-293l81 11c29 127 98 232 242 232 90 0 142-26 142-112 0-138-143-173-241-229-81-46-168-92-212-173-33-59-21-140 9-197 90-174 455-200 628-79 8 74-29 165-58 217l-69-8c-17-59-43-101-72-134" id="bd"/><g id="v"><use transform="matrix(0.012803819444444444,0,0,0.012803819444444444,0,0)" xlink:href="#ba"/><use transform="matrix(0.012803819444444444,0,0,0.012803819444444444,16.696180555555554,0)" xlink:href="#bb"/><use transform="matrix(0.012803819444444444,0,0,0.012803819444444444,29.79448784722222,0)" xlink:href="#aZ"/><use transform="matrix(0.012803819444444444,0,0,0.012803819444444444,39.499782986111114,0)" xlink:href="#bb"/><use transform="matrix(0.012803819444444444,0,0,0.012803819444444444,52.59809027777778,0)" xlink:href="#bc"/><use transform="matrix(0.012803819444444444,0,0,0.012803819444444444,66.68229166666667,0)" xlink:href="#bb"/><use transform="matrix(0.012803819444444444,0,0,0.012803819444444444,79.78059895833334,0)" xlink:href="#bd"/><use transform="matrix(0.012803819444444444,0,0,0.012803819444444444,90.76627604166667,0)" xlink:href="#aW"/></g><path fill="#a9afb8" d="M733-120c149 2 180-100 223-210l73 26c-9 101-22 215-41 304H43v-73c45-9 80-20 103-31s34-21 34-30v-991c0-8-10-18-32-30s-57-23-105-32v-73h881l40 32c-8 91-21 200-41 278h-75c-3-62-12-110-25-142s-32-48-57-48H430v405h398l33 35c-26 43-55 94-92 126-60-70-209-53-339-55v445c3 49 47 53 98 60 50 7 142 4 205 4" id="be"/><path fill="#a9afb8" d="M575-586c-52 3-101 0-145-10v462c0 8 10 18 32 30s57 22 106 31V0H43v-73c45-9 80-20 103-31s34-21 34-30v-1023c-46 7-93 12-137 19l-13-92c295-67 842-131 974 124 18 37 28 76 28 119 0 205-123 310-279 367l315 436c31 48 78 71 161 59l15 73c-85 26-183 60-284 66-41 2-83-27-98-55zm205-370c0-187-150-240-350-226v476c33 6 54 7 89 7 174 2 261-90 261-257" id="bf"/><g id="w"><use transform="matrix(0.012803819444444444,0,0,0.012803819444444444,0,0)" xlink:href="#be"/><use transform="matrix(0.012803819444444444,0,0,0.012803819444444444,13.776909722222221,0)" xlink:href="#bf"/></g><path fill="#a9afb8" d="M608-1485c121-11 249-37 339-65l38 37c1 424-6 852 1 1273 1 44 4 85 54 78 27-4 45-13 73-25l28 73C1051-58 957 4 844 30c-48 0-79-58-92-175C662-60 594 30 431 30 250 30 151-100 97-245c-43-117-45-275 3-393 72-177 212-322 451-322 86 0 134 17 194 59-1-141 2-293-1-431-2-78-58-77-136-84v-69zM450-183c118 65 220-16 295-86v-437c-42-68-108-122-210-122-175 0-230 145-230 330 0 149 51 263 145 315" id="bg"/><path fill="#a9afb8" d="M63-888c112-16 215-38 308-72h64v826c0 8 10 18 30 30s54 22 103 31V0H63v-73c45-9 79-20 100-31s32-21 32-30c-1-198 2-400-1-596-1-77-54-79-131-88v-70zm272-483c78 0 138 32 138 110 0 98-68 152-168 152-79 0-137-33-137-111 0-98 69-151 167-151" id="bh"/><path fill="#a9afb8" d="M522-415c101 0 146-78 146-185 0-142-66-245-207-245-97 0-146 80-146 186 0 144 63 244 207 244zm53 765c133-2 230-54 230-178 0-69-58-86-121-106-79-25-213-31-297-54-63 50-124 78-132 171 13 95 103 130 193 153 39 10 82 14 127 14zM854-792c51 72 59 207 10 292-71 123-201 204-391 205-35 33-49 49-59 84 3 21 11 28 34 35 189 59 495 33 572 193 50 103-10 216-63 273-120 128-305 228-561 196-155-20-294-66-359-177-38-65-21-150 27-193 58-53 118-95 202-141-87-42-137-66-104-127 37-68 103-114 172-162C198-355 85-434 85-602c0-179 131-276 271-330 132-52 312-27 404 42 96-10 198-45 269-70l28 37c-14 41-34 82-57 115-48 8-91 13-146 16" id="bi"/><path fill="#a9afb8" d="M1328-960c158 0 237 93 237 256v570c0 9 10 19 31 28s57 20 110 33V0h-497v-73c47-13 83-21 111-47 3-4 5-9 5-14v-469c-3-102-2-192-105-185-95 7-161 63-227 125v529c7 28 33 31 62 42 16 6 38 12 64 19V0H636v-73c47-13 85-21 112-47 3-4 5-9 5-14v-469c-3-100 4-193-98-185s-158 61-235 125v529c0 10 10 20 30 31s52 21 95 30V0H48v-73c44-11 77-22 99-31s33-19 33-30c-1-205 9-417-2-618-3-61-66-54-130-66v-70c120-13 219-36 315-72l42 42 11 124c100-81 183-166 347-166 125 0 197 59 215 166 101-81 185-166 350-166" id="bj"/><g id="x"><use transform="matrix(0.012803819444444444,0,0,0.012803819444444444,0,0)" xlink:href="#bg"/><use transform="matrix(0.012803819444444444,0,0,0.012803819444444444,14.698784722222221,0)" xlink:href="#bh"/><use transform="matrix(0.012803819444444444,0,0,0.012803819444444444,22.573133680555554,0)" xlink:href="#bb"/><use transform="matrix(0.012803819444444444,0,0,0.012803819444444444,35.67144097222222,0)" xlink:href="#bi"/><use transform="matrix(0.012803819444444444,0,0,0.012803819444444444,49.230685763888886,0)" xlink:href="#aT"/><use transform="matrix(0.012803819444444444,0,0,0.012803819444444444,60.869357638888886,0)" xlink:href="#bb"/><use transform="matrix(0.012803819444444444,0,0,0.012803819444444444,73.96766493055556,0)" xlink:href="#bj"/></g><path fill="#a9afb8" d="M190 0L58-211 59 0H30v-248h39L202-35l-2-213h31V0h-41" id="bk"/><path fill="#a9afb8" d="M24-231v-30h32v30H24zM24 0v-190h32V0H24" id="bl"/><path fill="#a9afb8" d="M96-169c-40 0-48 33-48 73s9 75 48 75c24 0 41-14 43-38l32 2c-6 37-31 61-74 61-59 0-76-41-82-99-10-93 101-131 147-64 4 7 5 14 7 22l-32 3c-4-21-16-35-41-35" id="bm"/><path fill="#a9afb8" d="M100-194c62-1 85 37 85 99 1 63-27 99-86 99S16-35 15-95c0-66 28-99 85-99zM99-20c44 1 53-31 53-75 0-43-8-75-51-75s-53 32-53 75 10 74 51 75" id="bn"/><path fill="#a9afb8" d="M24 0v-261h32V0H24" id="bo"/><path fill="#a9afb8" d="M100-194c63 0 86 42 84 106H49c0 40 14 67 53 68 26 1 43-12 49-29l28 8c-11 28-37 45-77 45C44 4 14-33 15-96c1-61 26-98 85-98zm52 81c6-60-76-77-97-28-3 7-6 17-6 28h103" id="bp"/><g id="y"><use transform="matrix(0.04248971193415638,0,0,0.04248971193415638,0,0)" xlink:href="#bk"/><use transform="matrix(0.04248971193415638,0,0,0.04248971193415638,11.004835390946502,0)" xlink:href="#bl"/><use transform="matrix(0.04248971193415638,0,0,0.04248971193415638,14.361522633744855,0)" xlink:href="#bm"/><use transform="matrix(0.04248971193415638,0,0,0.04248971193415638,22.009670781893004,0)" xlink:href="#bn"/><use transform="matrix(0.04248971193415638,0,0,0.04248971193415638,30.50761316872428,0)" xlink:href="#bo"/><use transform="matrix(0.04248971193415638,0,0,0.04248971193415638,33.86430041152263,0)" xlink:href="#bp"/></g><path fill="#a9afb8" d="M240 0l2-218c-23 76-54 145-80 218h-23L58-218 59 0H30v-248h44l77 211c21-75 51-140 76-211h43V0h-30" id="bq"/><path fill="#a9afb8" d="M114-163C36-179 61-72 57 0H25l-1-190h30c1 12-1 29 2 39 6-27 23-49 58-41v29" id="br"/><g id="z"><use transform="matrix(0.04248971193415638,0,0,0.04248971193415638,0,0)" xlink:href="#bq"/><use transform="matrix(0.04248971193415638,0,0,0.04248971193415638,12.704423868312757,0)" xlink:href="#bl"/><use transform="matrix(0.04248971193415638,0,0,0.04248971193415638,16.06111111111111,0)" xlink:href="#bo"/><use transform="matrix(0.04248971193415638,0,0,0.04248971193415638,19.417798353909465,0)" xlink:href="#bo"/><use transform="matrix(0.04248971193415638,0,0,0.04248971193415638,22.77448559670782,0)" xlink:href="#bp"/><use transform="matrix(0.04248971193415638,0,0,0.04248971193415638,31.2724279835391,0)" xlink:href="#br"/></g><path fill="#a9afb8" d="M32 76v-337h29V76H32" id="bs"/><use transform="matrix(0.04248971193415638,0,0,0.04248971193415638,0,0)" xlink:href="#bs" id="A"/><path fill="#a9afb8" d="M140-251c81 0 123 46 123 126C263-46 219 4 140 4 59 4 17-45 17-125s42-126 123-126zm0 227c63 0 89-41 89-101s-29-99-89-99c-61 0-89 39-89 99S79-25 140-24" id="bt"/><path fill="#a9afb8" d="M59-47c-2 24 18 29 38 22v24C64 9 27 4 27-40v-127H5v-23h24l9-43h21v43h35v23H59v120" id="bu"/><path fill="#a9afb8" d="M115-194c53 0 69 39 70 98 0 66-23 100-70 100C84 3 66-7 56-30L54 0H23l1-261h32v101c10-23 28-34 59-34zm-8 174c40 0 45-34 45-75 0-40-5-75-45-74-42 0-51 32-51 76 0 43 10 73 51 73" id="bv"/><g id="B"><use transform="matrix(0.04248971193415638,0,0,0.04248971193415638,0,0)" xlink:href="#bt"/><use transform="matrix(0.04248971193415638,0,0,0.04248971193415638,11.897119341563785,0)" xlink:href="#bm"/><use transform="matrix(0.04248971193415638,0,0,0.04248971193415638,19.545267489711932,0)" xlink:href="#bu"/><use transform="matrix(0.04248971193415638,0,0,0.04248971193415638,23.79423868312757,0)" xlink:href="#bn"/><use transform="matrix(0.04248971193415638,0,0,0.04248971193415638,32.29218106995884,0)" xlink:href="#bv"/><use transform="matrix(0.04248971193415638,0,0,0.04248971193415638,40.79012345679012,0)" xlink:href="#bp"/><use transform="matrix(0.04248971193415638,0,0,0.04248971193415638,49.288065843621396,0)" xlink:href="#br"/></g><path fill="#a9afb8" d="M101-251c82-7 93 87 43 132L82-64C71-53 59-42 53-27h129V0H18c2-99 128-94 128-182 0-28-16-43-45-43s-46 15-49 41l-32-3c6-41 34-60 81-64" id="bw"/><path fill="#a9afb8" d="M64 0c3-98 48-159 88-221H18v-27h164v26C143-157 98-101 97 0H64" id="bx"/><path fill="#a9afb8" d="M68-38c1 34 0 65-14 84H32c9-13 17-26 17-46H33v-38h35" id="by"/><g id="C"><use transform="matrix(0.04248971193415638,0,0,0.04248971193415638,0,0)" xlink:href="#bw"/><use transform="matrix(0.04248971193415638,0,0,0.04248971193415638,8.497942386831275,0)" xlink:href="#bx"/><use transform="matrix(0.04248971193415638,0,0,0.04248971193415638,16.99588477366255,0)" xlink:href="#by"/></g><path fill="#a9afb8" d="M101-251c68 0 85 55 85 127S166 4 100 4C33 4 14-52 14-124c0-73 17-127 87-127zm-1 229c47 0 54-49 54-102s-4-102-53-102c-51 0-55 48-55 102 0 53 5 102 54 102" id="bz"/><path fill="#a9afb8" d="M27 0v-27h64v-190l-56 39v-29l58-41h29v221h61V0H27" id="bA"/><g id="D"><use transform="matrix(0.04248971193415638,0,0,0.04248971193415638,0,0)" xlink:href="#bw"/><use transform="matrix(0.04248971193415638,0,0,0.04248971193415638,8.497942386831275,0)" xlink:href="#bz"/><use transform="matrix(0.04248971193415638,0,0,0.04248971193415638,16.99588477366255,0)" xlink:href="#bw"/><use transform="matrix(0.04248971193415638,0,0,0.04248971193415638,25.493827160493822,0)" xlink:href="#bA"/></g><path fill="#333" d="M240 0l2-218c-23 76-54 145-80 218h-23L58-218 59 0H30v-248h44l77 211c21-75 51-140 76-211h43V0h-30" id="bB"/><g id="E"><use transform="matrix(0.05,0,0,0.05,0,0)" xlink:href="#bB"/><use transform="matrix(0.05,0,0,0.05,14.950000000000001,0)" xlink:href="#an"/><use transform="matrix(0.05,0,0,0.05,24.950000000000003,0)" xlink:href="#ao"/><use transform="matrix(0.05,0,0,0.05,34.95,0)" xlink:href="#an"/><use transform="matrix(0.05,0,0,0.05,44.95,0)" xlink:href="#ap"/><use transform="matrix(0.05,0,0,0.05,54.95,0)" xlink:href="#ag"/><use transform="matrix(0.05,0,0,0.05,64.95,0)" xlink:href="#am"/><use transform="matrix(0.05,0,0,0.05,79.9,0)" xlink:href="#ag"/><use transform="matrix(0.05,0,0,0.05,89.9,0)" xlink:href="#ao"/><use transform="matrix(0.05,0,0,0.05,99.9,0)" xlink:href="#ad"/></g><g id="F"><use transform="matrix(0.05,0,0,0.05,0,0)" xlink:href="#am"/><use transform="matrix(0.05,0,0,0.05,14.950000000000001,0)" xlink:href="#an"/><use transform="matrix(0.05,0,0,0.05,24.950000000000003,0)" xlink:href="#ao"/><use transform="matrix(0.05,0,0,0.05,34.95,0)" xlink:href="#an"/><use transform="matrix(0.05,0,0,0.05,44.95,0)" xlink:href="#ap"/><use transform="matrix(0.05,0,0,0.05,54.95,0)" xlink:href="#ag"/><use transform="matrix(0.05,0,0,0.05,64.95,0)" xlink:href="#am"/><use transform="matrix(0.05,0,0,0.05,79.9,0)" xlink:href="#ag"/><use transform="matrix(0.05,0,0,0.05,89.9,0)" xlink:href="#ao"/><use transform="matrix(0.05,0,0,0.05,99.9,0)" xlink:href="#ad"/><use transform="matrix(0.05,0,0,0.05,104.9,0)" xlink:href="#ai"/><use transform="matrix(0.05,0,0,0.05,114.9,0)" xlink:href="#aj"/><use transform="matrix(0.05,0,0,0.05,118.85000000000001,0)" xlink:href="#ak"/></g><use transform="matrix(0.05,0,0,0.05,0,0)" xlink:href="#al" id="G"/><g id="H"><use transform="matrix(0.05,0,0,0.05,0,0)" xlink:href="#aq"/><use transform="matrix(0.05,0,0,0.05,3.95,0)" xlink:href="#an"/><use transform="matrix(0.05,0,0,0.05,13.949999999999998,0)" xlink:href="#ah"/><use transform="matrix(0.05,0,0,0.05,22.95,0)" xlink:href="#ad"/><use transform="matrix(0.05,0,0,0.05,27.950000000000003,0)" xlink:href="#ai"/><use transform="matrix(0.05,0,0,0.05,37.95,0)" xlink:href="#ao"/><use transform="matrix(0.05,0,0,0.05,47.95,0)" xlink:href="#an"/><use transform="matrix(0.05,0,0,0.05,57.95,0)" xlink:href="#am"/><use transform="matrix(0.05,0,0,0.05,72.9,0)" xlink:href="#ag"/></g><path fill="#333" d="M101-234c-31-9-42 10-38 44h38v23H63V0H32v-167H5v-23h27c-7-52 17-82 69-68v24" id="bC"/><g id="I"><use transform="matrix(0.05,0,0,0.05,0,0)" xlink:href="#bC"/><use transform="matrix(0.05,0,0,0.05,5,0)" xlink:href="#aj"/><use transform="matrix(0.05,0,0,0.05,8.95,0)" xlink:href="#af"/><use transform="matrix(0.05,0,0,0.05,14.899999999999999,0)" xlink:href="#ah"/><use transform="matrix(0.05,0,0,0.05,23.9,0)" xlink:href="#ad"/><use transform="matrix(0.05,0,0,0.05,28.899999999999995,0)" xlink:href="#ai"/><use transform="matrix(0.05,0,0,0.05,38.9,0)" xlink:href="#ao"/><use transform="matrix(0.05,0,0,0.05,48.9,0)" xlink:href="#an"/><use transform="matrix(0.05,0,0,0.05,58.900000000000006,0)" xlink:href="#am"/><use transform="matrix(0.05,0,0,0.05,73.85,0)" xlink:href="#ag"/></g><g id="J"><use transform="matrix(0.05,0,0,0.05,0,0)" xlink:href="#ar"/><use transform="matrix(0.05,0,0,0.05,9,0)" xlink:href="#ae"/><use transform="matrix(0.05,0,0,0.05,19,0)" xlink:href="#ao"/><use transform="matrix(0.05,0,0,0.05,29,0)" xlink:href="#ad"/><use transform="matrix(0.05,0,0,0.05,34,0)" xlink:href="#an"/><use transform="matrix(0.05,0,0,0.05,44,0)" xlink:href="#ar"/><use transform="matrix(0.05,0,0,0.05,53,0)" xlink:href="#ad"/></g><g id="K"><use transform="matrix(0.05,0,0,0.05,0,0)" xlink:href="#aw"/><use transform="matrix(0.05,0,0,0.05,10,0)" xlink:href="#aj"/><use transform="matrix(0.05,0,0,0.05,13.949999999999998,0)" xlink:href="#af"/><use transform="matrix(0.05,0,0,0.05,19.9,0)" xlink:href="#ag"/><use transform="matrix(0.05,0,0,0.05,29.899999999999995,0)" xlink:href="#ai"/><use transform="matrix(0.05,0,0,0.05,39.9,0)" xlink:href="#ak"/><use transform="matrix(0.05,0,0,0.05,49.9,0)" xlink:href="#an"/><use transform="matrix(0.05,0,0,0.05,59.900000000000006,0)" xlink:href="#ad"/><use transform="matrix(0.05,0,0,0.05,64.9,0)" xlink:href="#ag"/></g><g id="L"><use transform="matrix(0.05,0,0,0.05,0,0)" xlink:href="#ah"/><use transform="matrix(0.05,0,0,0.05,9,0)" xlink:href="#an"/><use transform="matrix(0.05,0,0,0.05,19,0)" xlink:href="#aq"/><use transform="matrix(0.05,0,0,0.05,22.95,0)" xlink:href="#an"/><use transform="matrix(0.05,0,0,0.05,32.95,0)" xlink:href="#af"/><use transform="matrix(0.05,0,0,0.05,38.900000000000006,0)" xlink:href="#at"/></g><path fill="#333" d="M30 0v-248h187v28H63v79h144v27H63v87h162V0H30" id="bD"/><g id="M"><use transform="matrix(0.05,0,0,0.05,0,0)" xlink:href="#bD"/><use transform="matrix(0.05,0,0,0.05,12,0)" xlink:href="#am"/><use transform="matrix(0.05,0,0,0.05,26.950000000000003,0)" xlink:href="#aJ"/><use transform="matrix(0.05,0,0,0.05,36.95,0)" xlink:href="#aq"/><use transform="matrix(0.05,0,0,0.05,40.900000000000006,0)" xlink:href="#ae"/><use transform="matrix(0.05,0,0,0.05,50.900000000000006,0)" xlink:href="#at"/><use transform="matrix(0.05,0,0,0.05,59.900000000000006,0)" xlink:href="#ag"/><use transform="matrix(0.05,0,0,0.05,69.9,0)" xlink:href="#ag"/><use transform="matrix(0.05,0,0,0.05,79.9,0)" xlink:href="#ah"/></g><g id="N"><use transform="matrix(0.05,0,0,0.05,0,0)" xlink:href="#ag"/><use transform="matrix(0.05,0,0,0.05,10,0)" xlink:href="#am"/><use transform="matrix(0.05,0,0,0.05,24.950000000000003,0)" xlink:href="#aJ"/><use transform="matrix(0.05,0,0,0.05,34.95,0)" xlink:href="#aq"/><use transform="matrix(0.05,0,0,0.05,38.900000000000006,0)" xlink:href="#ae"/><use transform="matrix(0.05,0,0,0.05,48.900000000000006,0)" xlink:href="#at"/><use transform="matrix(0.05,0,0,0.05,57.900000000000006,0)" xlink:href="#ag"/><use transform="matrix(0.05,0,0,0.05,67.9,0)" xlink:href="#ag"/><use transform="matrix(0.05,0,0,0.05,77.9,0)" xlink:href="#ai"/><use transform="matrix(0.05,0,0,0.05,87.9,0)" xlink:href="#aj"/><use transform="matrix(0.05,0,0,0.05,91.85000000000001,0)" xlink:href="#ak"/></g><use transform="matrix(0.05,0,0,0.05,0,0)" xlink:href="#al" id="O"/><g id="P"><use transform="matrix(0.05,0,0,0.05,0,0)" xlink:href="#am"/><use transform="matrix(0.05,0,0,0.05,14.950000000000001,0)" xlink:href="#an"/><use transform="matrix(0.05,0,0,0.05,24.950000000000003,0)" xlink:href="#ao"/><use transform="matrix(0.05,0,0,0.05,34.95,0)" xlink:href="#an"/><use transform="matrix(0.05,0,0,0.05,44.95,0)" xlink:href="#ap"/><use transform="matrix(0.05,0,0,0.05,54.95,0)" xlink:href="#ag"/><use transform="matrix(0.05,0,0,0.05,64.95,0)" xlink:href="#am"/><use transform="matrix(0.05,0,0,0.05,79.9,0)" xlink:href="#ag"/><use transform="matrix(0.05,0,0,0.05,89.9,0)" xlink:href="#ao"/><use transform="matrix(0.05,0,0,0.05,99.9,0)" xlink:href="#ad"/><use transform="matrix(0.05,0,0,0.05,104.9,0)" xlink:href="#ai"/><use transform="matrix(0.05,0,0,0.05,114.9,0)" xlink:href="#aj"/><use transform="matrix(0.05,0,0,0.05,118.85000000000001,0)" xlink:href="#ak"/></g><g id="Q"><use transform="matrix(0.05,0,0,0.05,0,0)" xlink:href="#bB"/><use transform="matrix(0.05,0,0,0.05,14.950000000000001,0)" xlink:href="#ag"/><use transform="matrix(0.05,0,0,0.05,24.950000000000003,0)" xlink:href="#am"/><use transform="matrix(0.05,0,0,0.05,39.900000000000006,0)" xlink:href="#aR"/><use transform="matrix(0.05,0,0,0.05,49.900000000000006,0)" xlink:href="#ag"/><use transform="matrix(0.05,0,0,0.05,59.900000000000006,0)" xlink:href="#af"/><use transform="matrix(0.05,0,0,0.05,65.85000000000001,0)" xlink:href="#ah"/><use transform="matrix(0.05,0,0,0.05,74.85000000000001,0)" xlink:href="#aw"/><use transform="matrix(0.05,0,0,0.05,84.85000000000001,0)" xlink:href="#aj"/><use transform="matrix(0.05,0,0,0.05,88.80000000000001,0)" xlink:href="#aJ"/></g><path fill="#333" d="M30-248c87 1 191-15 191 75 0 78-77 80-158 76V0H30v-248zm33 125c57 0 124 11 124-50 0-59-68-47-124-48v98" id="bE"/><g id="R"><use transform="matrix(0.05,0,0,0.05,0,0)" xlink:href="#bE"/><use transform="matrix(0.05,0,0,0.05,12,0)" xlink:href="#af"/><use transform="matrix(0.05,0,0,0.05,17.95,0)" xlink:href="#ae"/><use transform="matrix(0.05,0,0,0.05,27.950000000000003,0)" xlink:href="#ap"/><use transform="matrix(0.05,0,0,0.05,37.95,0)" xlink:href="#af"/><use transform="matrix(0.05,0,0,0.05,43.900000000000006,0)" xlink:href="#an"/><use transform="matrix(0.05,0,0,0.05,53.900000000000006,0)" xlink:href="#am"/></g><g id="S"><use transform="matrix(0.05,0,0,0.05,0,0)" xlink:href="#am"/><use transform="matrix(0.05,0,0,0.05,14.950000000000001,0)" xlink:href="#ag"/><use transform="matrix(0.05,0,0,0.05,24.950000000000003,0)" xlink:href="#am"/><use transform="matrix(0.05,0,0,0.05,39.900000000000006,0)" xlink:href="#aR"/><use transform="matrix(0.05,0,0,0.05,49.900000000000006,0)" xlink:href="#ag"/><use transform="matrix(0.05,0,0,0.05,59.900000000000006,0)" xlink:href="#af"/><use transform="matrix(0.05,0,0,0.05,65.85000000000001,0)" xlink:href="#ai"/><use transform="matrix(0.05,0,0,0.05,75.85000000000001,0)" xlink:href="#aj"/><use transform="matrix(0.05,0,0,0.05,79.80000000000001,0)" xlink:href="#ak"/></g><g id="T"><use transform="matrix(0.05,0,0,0.05,0,0)" xlink:href="#ar"/><use transform="matrix(0.05,0,0,0.05,9,0)" xlink:href="#av"/><use transform="matrix(0.05,0,0,0.05,19,0)" xlink:href="#ah"/><use transform="matrix(0.05,0,0,0.05,28,0)" xlink:href="#ad"/><use transform="matrix(0.05,0,0,0.05,33,0)" xlink:href="#ae"/><use transform="matrix(0.05,0,0,0.05,43,0)" xlink:href="#am"/><use transform="matrix(0.05,0,0,0.05,57.95,0)" xlink:href="#ag"/><use transform="matrix(0.05,0,0,0.05,67.95,0)" xlink:href="#af"/><use transform="matrix(0.05,0,0,0.05,73.9,0)" xlink:href="#ai"/><use transform="matrix(0.05,0,0,0.05,83.9,0)" xlink:href="#aj"/><use transform="matrix(0.05,0,0,0.05,87.85000000000001,0)" xlink:href="#ak"/></g><g id="U"><use transform="matrix(0.05,0,0,0.05,0,0)" xlink:href="#bC"/><use transform="matrix(0.05,0,0,0.05,5,0)" xlink:href="#aj"/><use transform="matrix(0.05,0,0,0.05,8.95,0)" xlink:href="#af"/><use transform="matrix(0.05,0,0,0.05,14.899999999999999,0)" xlink:href="#ah"/><use transform="matrix(0.05,0,0,0.05,23.9,0)" xlink:href="#ad"/><use transform="matrix(0.05,0,0,0.05,28.899999999999995,0)" xlink:href="#ai"/><use transform="matrix(0.05,0,0,0.05,38.9,0)" xlink:href="#ao"/><use transform="matrix(0.05,0,0,0.05,48.9,0)" xlink:href="#an"/><use transform="matrix(0.05,0,0,0.05,58.900000000000006,0)" xlink:href="#am"/><use transform="matrix(0.05,0,0,0.05,73.85,0)" xlink:href="#ag"/></g><g id="V"><use transform="matrix(0.05,0,0,0.05,0,0)" xlink:href="#aq"/><use transform="matrix(0.05,0,0,0.05,3.95,0)" xlink:href="#an"/><use transform="matrix(0.05,0,0,0.05,13.949999999999998,0)" xlink:href="#ah"/><use transform="matrix(0.05,0,0,0.05,22.95,0)" xlink:href="#ad"/><use transform="matrix(0.05,0,0,0.05,27.950000000000003,0)" xlink:href="#ai"/><use transform="matrix(0.05,0,0,0.05,37.95,0)" xlink:href="#ao"/><use transform="matrix(0.05,0,0,0.05,47.95,0)" xlink:href="#an"/><use transform="matrix(0.05,0,0,0.05,57.95,0)" xlink:href="#am"/><use transform="matrix(0.05,0,0,0.05,72.9,0)" xlink:href="#ag"/></g><path d="M141-36C126-15 110 5 73 4 37 3 15-17 15-53c-1-64 63-63 125-63 3-35-9-54-41-54-24 1-41 7-42 31l-33-3c5-37 33-52 76-52 45 0 72 20 72 64v82c-1 20 7 32 28 27v20c-31 9-61-2-59-35zM48-53c0 20 12 33 32 33 41-3 63-29 60-74-43 2-92-5-92 41" id="bF"/><g id="W"><use transform="matrix(0.05,0,0,0.05,0,0)" xlink:href="#aK"/><use transform="matrix(0.05,0,0,0.05,9,0)" xlink:href="#aD"/><use transform="matrix(0.05,0,0,0.05,19,0)" xlink:href="#az"/><use transform="matrix(0.05,0,0,0.05,29,0)" xlink:href="#aC"/><use transform="matrix(0.05,0,0,0.05,34,0)" xlink:href="#bF"/><use transform="matrix(0.05,0,0,0.05,44,0)" xlink:href="#aK"/><use transform="matrix(0.05,0,0,0.05,53,0)" xlink:href="#aC"/></g><path d="M24-231v-30h32v30H24zM-9 49c24 4 33-6 33-30v-209h32V24c2 40-23 58-65 49V49" id="bG"/><g id="X"><use transform="matrix(0.05,0,0,0.05,0,0)" xlink:href="#bG"/><use transform="matrix(0.05,0,0,0.05,3.95,0)" xlink:href="#aD"/><use transform="matrix(0.05,0,0,0.05,13.949999999999998,0)" xlink:href="#ay"/><use transform="matrix(0.05,0,0,0.05,17.9,0)" xlink:href="#az"/><use transform="matrix(0.05,0,0,0.05,27.899999999999995,0)" xlink:href="#aG"/><use transform="matrix(0.05,0,0,0.05,37.9,0)" xlink:href="#aH"/><use transform="matrix(0.05,0,0,0.05,47.9,0)" xlink:href="#bF"/><use transform="matrix(0.05,0,0,0.05,57.900000000000006,0)" xlink:href="#aC"/><use transform="matrix(0.05,0,0,0.05,62.900000000000006,0)" xlink:href="#aB"/></g><path fill="#333" d="M127-220V0H93v-220H8v-28h204v28h-85" id="bH"/><g id="Y"><use transform="matrix(0.05,0,0,0.05,0,0)" xlink:href="#bH"/><use transform="matrix(0.05,0,0,0.05,10.3,0)" xlink:href="#af"/><use transform="matrix(0.05,0,0,0.05,16.25,0)" xlink:href="#an"/><use transform="matrix(0.05,0,0,0.05,26.25,0)" xlink:href="#ao"/><use transform="matrix(0.05,0,0,0.05,36.25,0)" xlink:href="#ah"/><use transform="matrix(0.05,0,0,0.05,45.25,0)" xlink:href="#an"/><use transform="matrix(0.05,0,0,0.05,55.25,0)" xlink:href="#ar"/><use transform="matrix(0.05,0,0,0.05,64.25,0)" xlink:href="#ad"/><use transform="matrix(0.05,0,0,0.05,69.25,0)" xlink:href="#aj"/><use transform="matrix(0.05,0,0,0.05,73.2,0)" xlink:href="#ae"/><use transform="matrix(0.05,0,0,0.05,83.2,0)" xlink:href="#ao"/><use transform="matrix(0.05,0,0,0.05,93.2,0)" xlink:href="#ah"/></g><g id="Z"><use transform="matrix(0.05,0,0,0.05,0,0)" xlink:href="#ad"/><use transform="matrix(0.05,0,0,0.05,5,0)" xlink:href="#af"/><use transform="matrix(0.05,0,0,0.05,10.95,0)" xlink:href="#an"/><use transform="matrix(0.05,0,0,0.05,20.95,0)" xlink:href="#ao"/><use transform="matrix(0.05,0,0,0.05,30.950000000000003,0)" xlink:href="#ah"/><use transform="matrix(0.05,0,0,0.05,39.95,0)" xlink:href="#an"/><use transform="matrix(0.05,0,0,0.05,49.95,0)" xlink:href="#ar"/><use transform="matrix(0.05,0,0,0.05,58.95,0)" xlink:href="#ad"/><use transform="matrix(0.05,0,0,0.05,63.95,0)" xlink:href="#aj"/><use transform="matrix(0.05,0,0,0.05,67.9,0)" xlink:href="#ae"/><use transform="matrix(0.05,0,0,0.05,77.9,0)" xlink:href="#ao"/><use transform="matrix(0.05,0,0,0.05,87.9,0)" xlink:href="#ai"/><use transform="matrix(0.05,0,0,0.05,97.9,0)" xlink:href="#aj"/><use transform="matrix(0.05,0,0,0.05,101.85000000000001,0)" xlink:href="#ak"/></g><g id="aa"><use transform="matrix(0.05,0,0,0.05,0,0)" xlink:href="#aj"/><use transform="matrix(0.05,0,0,0.05,3.95,0)" xlink:href="#ao"/><use transform="matrix(0.05,0,0,0.05,13.949999999999998,0)" xlink:href="#au"/><use transform="matrix(0.05,0,0,0.05,22.95,0)" xlink:href="#ag"/><use transform="matrix(0.05,0,0,0.05,32.95,0)" xlink:href="#ao"/><use transform="matrix(0.05,0,0,0.05,42.95,0)" xlink:href="#ad"/><use transform="matrix(0.05,0,0,0.05,47.95,0)" xlink:href="#ae"/><use transform="matrix(0.05,0,0,0.05,57.95,0)" xlink:href="#af"/><use transform="matrix(0.05,0,0,0.05,63.900000000000006,0)" xlink:href="#at"/><use transform="matrix(0.05,0,0,0.05,72.9,0)" xlink:href="#ai"/><use transform="matrix(0.05,0,0,0.05,82.9,0)" xlink:href="#aj"/><use transform="matrix(0.05,0,0,0.05,86.85000000000001,0)" xlink:href="#ak"/></g><g id="ab"><use transform="matrix(0.05,0,0,0.05,0,0)" xlink:href="#am"/><use transform="matrix(0.05,0,0,0.05,14.950000000000001,0)" xlink:href="#ag"/><use transform="matrix(0.05,0,0,0.05,24.950000000000003,0)" xlink:href="#am"/><use transform="matrix(0.05,0,0,0.05,39.900000000000006,0)" xlink:href="#ai"/><use transform="matrix(0.05,0,0,0.05,49.900000000000006,0)" xlink:href="#aJ"/><use transform="matrix(0.05,0,0,0.05,59.900000000000006,0)" xlink:href="#af"/><use transform="matrix(0.05,0,0,0.05,65.85000000000001,0)" xlink:href="#ap"/><use transform="matrix(0.05,0,0,0.05,75.85000000000001,0)" xlink:href="#ai"/><use transform="matrix(0.05,0,0,0.05,85.85000000000001,0)" xlink:href="#aJ"/><use transform="matrix(0.05,0,0,0.05,95.85000000000001,0)" xlink:href="#ad"/><use transform="matrix(0.05,0,0,0.05,100.85000000000001,0)" xlink:href="#ah"/></g></defs></g></svg>